<mxfile host="65bd71144e">
    <diagram id="auqwP64tCNJJZ5frrzru" name="Сторінка-1">
        <mxGraphModel dx="874" dy="396" grid="1" gridSize="10" guides="1" tooltips="1" connect="1" arrows="1" fold="1" page="1" pageScale="1" pageWidth="827" pageHeight="1169" math="0" shadow="0">
            <root>
                <mxCell id="0"/>
                <mxCell id="1" parent="0"/>
                <mxCell id="MQQtta7XzjkldRmedkjr-49" style="edgeStyle=orthogonalEdgeStyle;rounded=0;orthogonalLoop=1;jettySize=auto;html=1;exitX=0.75;exitY=0;exitDx=0;exitDy=0;entryX=0.09;entryY=1.032;entryDx=0;entryDy=0;entryPerimeter=0;endArrow=none;endFill=0;" parent="1" source="MQQtta7XzjkldRmedkjr-1" target="MQQtta7XzjkldRmedkjr-21" edge="1">
                    <mxGeometry relative="1" as="geometry"/>
                </mxCell>
                <mxCell id="MQQtta7XzjkldRmedkjr-1" value="customer: Customer" style="swimlane;html=1;fontStyle=1;align=center;verticalAlign=top;childLayout=stackLayout;horizontal=1;startSize=26;horizontalStack=0;resizeParent=1;resizeLast=0;collapsible=1;marginBottom=0;swimlaneFillColor=#ffffff;rounded=0;shadow=0;comic=0;labelBackgroundColor=none;strokeWidth=1;fillColor=none;fontFamily=Verdana;fontSize=12" parent="1" vertex="1">
                    <mxGeometry x="110" y="320" width="293" height="130" as="geometry"/>
                </mxCell>
                <mxCell id="MQQtta7XzjkldRmedkjr-2" value="+ phoneNumber = &quot;+380660764589&quot;" style="text;html=1;strokeColor=none;fillColor=none;align=left;verticalAlign=top;spacingLeft=4;spacingRight=4;whiteSpace=wrap;overflow=hidden;rotatable=0;points=[[0,0.5],[1,0.5]];portConstraint=eastwest;" parent="MQQtta7XzjkldRmedkjr-1" vertex="1">
                    <mxGeometry y="26" width="293" height="26" as="geometry"/>
                </mxCell>
                <mxCell id="MQQtta7XzjkldRmedkjr-3" value="+ sourceOfReference = &quot;порадили знайомі&quot;" style="text;html=1;strokeColor=none;fillColor=none;align=left;verticalAlign=top;spacingLeft=4;spacingRight=4;whiteSpace=wrap;overflow=hidden;rotatable=0;points=[[0,0.5],[1,0.5]];portConstraint=eastwest;" parent="MQQtta7XzjkldRmedkjr-1" vertex="1">
                    <mxGeometry y="52" width="293" height="26" as="geometry"/>
                </mxCell>
                <mxCell id="MQQtta7XzjkldRmedkjr-4" value="+ breakUpReason = null" style="text;html=1;strokeColor=none;fillColor=none;align=left;verticalAlign=top;spacingLeft=4;spacingRight=4;whiteSpace=wrap;overflow=hidden;rotatable=0;points=[[0,0.5],[1,0.5]];portConstraint=eastwest;" parent="MQQtta7XzjkldRmedkjr-1" vertex="1">
                    <mxGeometry y="78" width="293" height="26" as="geometry"/>
                </mxCell>
                <mxCell id="MQQtta7XzjkldRmedkjr-5" value="+ hasESignature = false" style="text;html=1;strokeColor=none;fillColor=none;align=left;verticalAlign=top;spacingLeft=4;spacingRight=4;whiteSpace=wrap;overflow=hidden;rotatable=0;points=[[0,0.5],[1,0.5]];portConstraint=eastwest;" parent="MQQtta7XzjkldRmedkjr-1" vertex="1">
                    <mxGeometry y="104" width="293" height="26" as="geometry"/>
                </mxCell>
                <mxCell id="MQQtta7XzjkldRmedkjr-7" value="studentRepresentative: &lt;br&gt;StudentRepresentative" style="swimlane;html=1;fontStyle=1;align=center;verticalAlign=top;childLayout=stackLayout;horizontal=1;startSize=50;horizontalStack=0;resizeParent=1;resizeLast=0;collapsible=1;marginBottom=0;swimlaneFillColor=#ffffff;rounded=0;shadow=0;comic=0;labelBackgroundColor=none;strokeWidth=1;fillColor=none;fontFamily=Verdana;fontSize=12" parent="1" vertex="1">
                    <mxGeometry x="50" y="60" width="207" height="206" as="geometry"/>
                </mxCell>
                <mxCell id="MQQtta7XzjkldRmedkjr-8" value="+ firstName = &quot;Михайло&quot;" style="text;html=1;strokeColor=none;fillColor=none;align=left;verticalAlign=top;spacingLeft=4;spacingRight=4;whiteSpace=wrap;overflow=hidden;rotatable=0;points=[[0,0.5],[1,0.5]];portConstraint=eastwest;" parent="MQQtta7XzjkldRmedkjr-7" vertex="1">
                    <mxGeometry y="50" width="207" height="26" as="geometry"/>
                </mxCell>
                <mxCell id="MQQtta7XzjkldRmedkjr-9" value="+ lastName = &quot;Буць&quot;" style="text;html=1;strokeColor=none;fillColor=none;align=left;verticalAlign=top;spacingLeft=4;spacingRight=4;whiteSpace=wrap;overflow=hidden;rotatable=0;points=[[0,0.5],[1,0.5]];portConstraint=eastwest;" parent="MQQtta7XzjkldRmedkjr-7" vertex="1">
                    <mxGeometry y="76" width="207" height="26" as="geometry"/>
                </mxCell>
                <mxCell id="MQQtta7XzjkldRmedkjr-10" value="+ fathersName = &quot;Петренко&quot;" style="text;html=1;strokeColor=none;fillColor=none;align=left;verticalAlign=top;spacingLeft=4;spacingRight=4;whiteSpace=wrap;overflow=hidden;rotatable=0;points=[[0,0.5],[1,0.5]];portConstraint=eastwest;" parent="MQQtta7XzjkldRmedkjr-7" vertex="1">
                    <mxGeometry y="102" width="207" height="26" as="geometry"/>
                </mxCell>
                <mxCell id="MQQtta7XzjkldRmedkjr-11" value="+ dateOfBirth = 01.06.1975" style="text;html=1;strokeColor=none;fillColor=none;align=left;verticalAlign=top;spacingLeft=4;spacingRight=4;whiteSpace=wrap;overflow=hidden;rotatable=0;points=[[0,0.5],[1,0.5]];portConstraint=eastwest;" parent="MQQtta7XzjkldRmedkjr-7" vertex="1">
                    <mxGeometry y="128" width="207" height="26" as="geometry"/>
                </mxCell>
                <mxCell id="MQQtta7XzjkldRmedkjr-12" value="+ phoneNumber = &quot;+380660764589&quot;" style="text;html=1;strokeColor=none;fillColor=none;align=left;verticalAlign=top;spacingLeft=4;spacingRight=4;whiteSpace=wrap;overflow=hidden;rotatable=0;points=[[0,0.5],[1,0.5]];portConstraint=eastwest;" parent="MQQtta7XzjkldRmedkjr-7" vertex="1">
                    <mxGeometry y="154" width="207" height="26" as="geometry"/>
                </mxCell>
                <mxCell id="MQQtta7XzjkldRmedkjr-13" value="+ email = &quot;myhailo.buc@gmail.com&quot;" style="text;html=1;strokeColor=none;fillColor=none;align=left;verticalAlign=top;spacingLeft=4;spacingRight=4;whiteSpace=wrap;overflow=hidden;rotatable=0;points=[[0,0.5],[1,0.5]];portConstraint=eastwest;" parent="MQQtta7XzjkldRmedkjr-7" vertex="1">
                    <mxGeometry y="180" width="207" height="26" as="geometry"/>
                </mxCell>
                <mxCell id="MQQtta7XzjkldRmedkjr-14" value="student: Student" style="swimlane;html=1;fontStyle=1;align=center;verticalAlign=top;childLayout=stackLayout;horizontal=1;startSize=26;horizontalStack=0;resizeParent=1;resizeLast=0;collapsible=1;marginBottom=0;swimlaneFillColor=#ffffff;rounded=0;shadow=0;comic=0;labelBackgroundColor=none;strokeWidth=1;fillColor=none;fontFamily=Verdana;fontSize=12" parent="1" vertex="1">
                    <mxGeometry x="310" y="60" width="223" height="208" as="geometry"/>
                </mxCell>
                <mxCell id="MQQtta7XzjkldRmedkjr-15" value="+ firstName = &quot;Олег&quot;" style="text;html=1;strokeColor=none;fillColor=none;align=left;verticalAlign=top;spacingLeft=4;spacingRight=4;whiteSpace=wrap;overflow=hidden;rotatable=0;points=[[0,0.5],[1,0.5]];portConstraint=eastwest;" parent="MQQtta7XzjkldRmedkjr-14" vertex="1">
                    <mxGeometry y="26" width="223" height="26" as="geometry"/>
                </mxCell>
                <mxCell id="MQQtta7XzjkldRmedkjr-16" value="+ lastName = &quot;Буць&quot;" style="text;html=1;strokeColor=none;fillColor=none;align=left;verticalAlign=top;spacingLeft=4;spacingRight=4;whiteSpace=wrap;overflow=hidden;rotatable=0;points=[[0,0.5],[1,0.5]];portConstraint=eastwest;" parent="MQQtta7XzjkldRmedkjr-14" vertex="1">
                    <mxGeometry y="52" width="223" height="26" as="geometry"/>
                </mxCell>
                <mxCell id="MQQtta7XzjkldRmedkjr-17" value="+ fathersName = &quot;Михайлович&quot;" style="text;html=1;strokeColor=none;fillColor=none;align=left;verticalAlign=top;spacingLeft=4;spacingRight=4;whiteSpace=wrap;overflow=hidden;rotatable=0;points=[[0,0.5],[1,0.5]];portConstraint=eastwest;" parent="MQQtta7XzjkldRmedkjr-14" vertex="1">
                    <mxGeometry y="78" width="223" height="26" as="geometry"/>
                </mxCell>
                <mxCell id="MQQtta7XzjkldRmedkjr-18" value="+ dateOfBirth = 25.05.2010" style="text;html=1;strokeColor=none;fillColor=none;align=left;verticalAlign=top;spacingLeft=4;spacingRight=4;whiteSpace=wrap;overflow=hidden;rotatable=0;points=[[0,0.5],[1,0.5]];portConstraint=eastwest;" parent="MQQtta7XzjkldRmedkjr-14" vertex="1">
                    <mxGeometry y="104" width="223" height="26" as="geometry"/>
                </mxCell>
                <mxCell id="MQQtta7XzjkldRmedkjr-19" value="+ phoneNumber = &quot;+380660987654&quot;" style="text;html=1;strokeColor=none;fillColor=none;align=left;verticalAlign=top;spacingLeft=4;spacingRight=4;whiteSpace=wrap;overflow=hidden;rotatable=0;points=[[0,0.5],[1,0.5]];portConstraint=eastwest;" parent="MQQtta7XzjkldRmedkjr-14" vertex="1">
                    <mxGeometry y="130" width="223" height="26" as="geometry"/>
                </mxCell>
                <mxCell id="MQQtta7XzjkldRmedkjr-20" value="+ status = &quot;active&quot;" style="text;html=1;strokeColor=none;fillColor=none;align=left;verticalAlign=top;spacingLeft=4;spacingRight=4;whiteSpace=wrap;overflow=hidden;rotatable=0;points=[[0,0.5],[1,0.5]];portConstraint=eastwest;" parent="MQQtta7XzjkldRmedkjr-14" vertex="1">
                    <mxGeometry y="156" width="223" height="26" as="geometry"/>
                </mxCell>
                <mxCell id="MQQtta7XzjkldRmedkjr-23" value="personalInformation: &lt;br&gt;PersonalInformation" style="swimlane;html=1;fontStyle=1;align=center;verticalAlign=top;childLayout=stackLayout;horizontal=1;startSize=40;horizontalStack=0;resizeParent=1;resizeLast=0;collapsible=1;marginBottom=0;swimlaneFillColor=#ffffff;rounded=0;shadow=0;comic=0;labelBackgroundColor=none;strokeWidth=1;fillColor=none;fontFamily=Verdana;fontSize=12" parent="1" vertex="1">
                    <mxGeometry x="600" y="60" width="200" height="160" as="geometry"/>
                </mxCell>
                <mxCell id="MQQtta7XzjkldRmedkjr-24" value="+ VAT = &quot;546441130156&quot;" style="text;html=1;strokeColor=none;fillColor=none;align=left;verticalAlign=top;spacingLeft=4;spacingRight=4;whiteSpace=wrap;overflow=hidden;rotatable=0;points=[[0,0.5],[1,0.5]];portConstraint=eastwest;" parent="MQQtta7XzjkldRmedkjr-23" vertex="1">
                    <mxGeometry y="40" width="200" height="18" as="geometry"/>
                </mxCell>
                <mxCell id="MQQtta7XzjkldRmedkjr-25" value="+ passportCode = &quot;КВ855762&quot;" style="text;html=1;strokeColor=none;fillColor=none;align=left;verticalAlign=top;spacingLeft=4;spacingRight=4;whiteSpace=wrap;overflow=hidden;rotatable=0;points=[[0,0.5],[1,0.5]];portConstraint=eastwest;" parent="MQQtta7XzjkldRmedkjr-23" vertex="1">
                    <mxGeometry y="58" width="200" height="26" as="geometry"/>
                </mxCell>
                <mxCell id="MQQtta7XzjkldRmedkjr-26" value="+ residenceAddress = &quot;вул&amp;nbsp;&lt;br&gt;Сергія Грицевца, буд. 14, кв. 91&quot;" style="text;html=1;strokeColor=none;fillColor=none;align=left;verticalAlign=top;spacingLeft=4;spacingRight=4;whiteSpace=wrap;overflow=hidden;rotatable=0;points=[[0,0.5],[1,0.5]];portConstraint=eastwest;" parent="MQQtta7XzjkldRmedkjr-23" vertex="1">
                    <mxGeometry y="84" width="200" height="50" as="geometry"/>
                </mxCell>
                <mxCell id="MQQtta7XzjkldRmedkjr-46" value="+ canTakePhotos = true" style="text;html=1;strokeColor=none;fillColor=none;align=left;verticalAlign=top;spacingLeft=4;spacingRight=4;whiteSpace=wrap;overflow=hidden;rotatable=0;points=[[0,0.5],[1,0.5]];portConstraint=eastwest;" parent="MQQtta7XzjkldRmedkjr-23" vertex="1">
                    <mxGeometry y="134" width="200" height="26" as="geometry"/>
                </mxCell>
                <mxCell id="MQQtta7XzjkldRmedkjr-47" style="edgeStyle=orthogonalEdgeStyle;rounded=0;orthogonalLoop=1;jettySize=auto;html=1;entryX=-0.013;entryY=0.951;entryDx=0;entryDy=0;entryPerimeter=0;endArrow=none;endFill=0;" parent="1" source="MQQtta7XzjkldRmedkjr-18" target="MQQtta7XzjkldRmedkjr-26" edge="1">
                    <mxGeometry relative="1" as="geometry"/>
                </mxCell>
                <mxCell id="MQQtta7XzjkldRmedkjr-48" style="edgeStyle=orthogonalEdgeStyle;rounded=0;orthogonalLoop=1;jettySize=auto;html=1;entryX=0;entryY=0.5;entryDx=0;entryDy=0;endArrow=none;endFill=0;" parent="1" source="MQQtta7XzjkldRmedkjr-11" target="MQQtta7XzjkldRmedkjr-18" edge="1">
                    <mxGeometry relative="1" as="geometry"/>
                </mxCell>
                <mxCell id="MQQtta7XzjkldRmedkjr-21" value="+ email = &quot;oleg.buc@gmail.com&quot;" style="text;html=1;strokeColor=none;fillColor=none;align=left;verticalAlign=top;spacingLeft=4;spacingRight=4;whiteSpace=wrap;overflow=hidden;rotatable=0;points=[[0,0.5],[1,0.5]];portConstraint=eastwest;" parent="1" vertex="1">
                    <mxGeometry x="310" y="242" width="223" height="26" as="geometry"/>
                </mxCell>
            </root>
        </mxGraphModel>
    </diagram>
</mxfile>